<?xml version="1.0" standalone="no"?>
<!DOCTYPE svg PUBLIC "-//W3C//DTD SVG 20010904//EN"
        "http://www.w3.org/TR/2001/REC-SVG-20010904/DTD/svg10.dtd">
<svg version="1.0" xmlns="http://www.w3.org/2000/svg"
     width="512.000000pt" height="512.000000pt" viewBox="0 0 512.000000 512.000000"
     preserveAspectRatio="xMidYMid meet">

    <g transform="translate(0.000000,512.000000) scale(0.100000,-0.100000)"
       fill="#000000" stroke="none">
        <path d="M3165 4036 c-59 -28 -107 -76 -131 -131 -15 -34 -19 -84 -23 -325 -6
-269 -7 -287 -28 -326 -23 -44 -70 -88 -112 -107 -19 -9 -385 -13 -1361 -17
l-1335 -5 -41 -22 c-53 -28 -107 -91 -122 -142 -8 -26 -12 -157 -12 -412 0
-373 0 -374 24 -424 28 -59 76 -107 131 -132 38 -17 117 -18 1375 -23 1461 -5
1361 -1 1416 -62 57 -62 59 -72 65 -373 6 -321 10 -337 89 -408 79 -72 183
-87 275 -43 28 14 419 312 869 663 922 717 871 671 871 803 -1 89 -27 135
-118 209 -334 275 -1591 1267 -1622 1282 -58 27 -147 25 -210 -5z"/>
    </g>
</svg>
